<?xml version="1.0" ?><svg id="Layer_1" style="enable-background:new 0 0 512 512;" version="1.1" viewBox="0 0 512 512" xml:space="preserve" xmlns="http://www.w3.org/2000/svg" xmlns:xlink="http://www.w3.org/1999/xlink"><style type="text/css">
	.st0{fill:#010101;}
</style><g id="XMLID_972_"><path class="st0" d="M318.2,240.7c-3.1,0.2-3.8,0.8-3.2,4c1.9,9.4,1.3,18.9-1.3,28.2   c-8.5,29.7-39.3,48.3-69.9,42.1c-30.1-6.1-51.1-34.9-47.5-65.5c1-8.7,1-8.4-8.1-8.9c-6.2-0.4-8.3,1.2-8.1,7.8   c0.5,23.9,0.2,47.8,0.2,71.7c0,8.9,2.7,11.5,11.6,11.5c21.4,0,42.7,0,64.1,0c21.3,0,42.7,0,64.1,0c9,0,11.6-2.6,11.6-11.5   c0-22.3,0-44.6,0-66.8C331.7,239.7,331.7,239.9,318.2,240.7z" id="XMLID_471_"/><path class="st0" d="M255.6,294c20.6,0.3,38.2-17.1,38.4-37.8c0.2-20.6-17.3-38.2-38-38.2   c-20.3,0-37.5,16.9-38,37.4C217.6,275.9,235,293.7,255.6,294z" id="XMLID_470_"/><path class="st0" d="M256,75.9c-99.4,0-180.1,80.6-180.1,180.1c0,99.5,80.6,180.1,180.1,180.1   c99.4,0,180.1-80.6,180.1-180.1C436.1,156.5,355.4,75.9,256,75.9z M354,328.1c0,16.9-8.9,25.9-25.7,25.9c-48.3,0-96.6,0.1-144.9,0   c-16.2,0-25.3-9.1-25.4-25.5c-0.1-24.2,0-48.3,0-72.4c0-23.9-0.1-47.8,0-71.7c0-17.3,8.9-26.2,26.1-26.2c48,0,96.1,0,144.2,0   c16.8,0.1,25.7,9.1,25.7,25.9C354,232,354,280,354,328.1z" id="XMLID_974_"/><path class="st0" d="M312.4,180.3c-19,0-19,0-19,19.3c0,19,0,19,19.4,19c19,0,19,0,19-18.7   C331.7,180.3,331.7,180.3,312.4,180.3z" id="XMLID_467_"/></g></svg>