<!DOCTYPE svg PUBLIC "-//W3C//DTD SVG 20010904//EN" "http://www.w3.org/TR/2001/REC-SVG-20010904/DTD/svg10.dtd">
<svg version="1.0" xmlns="http://www.w3.org/2000/svg" width="276px" height="240px" viewBox="0 0 2760 2400" preserveAspectRatio="xMidYMid meet">
<g id="layer1" fill="#b7c9c9" stroke="none">
 <path d="M1180 2225 c0 -8 7 -15 15 -15 8 0 15 7 15 15 0 8 -7 15 -15 15 -8 0 -15 -7 -15 -15z"/>
 <path d="M1190 2050 c0 -5 7 -10 15 -10 8 0 15 5 15 10 0 6 -7 10 -15 10 -8 0 -15 -4 -15 -10z"/>
 <path d="M1640 1250 c0 -20 5 -30 15 -30 10 0 15 10 15 30 0 20 -5 30 -15 30 -10 0 -15 -10 -15 -30z"/>
 <path d="M1640 1039 c0 -38 24 -35 28 4 2 19 -1 27 -12 27 -11 0 -16 -10 -16 -31z"/>
 <path d="M710 696 c0 -9 7 -16 16 -16 17 0 14 22 -4 28 -7 2 -12 -3 -12 -12z"/>
 <path d="M2213 673 c-7 -2 -13 -12 -13 -20 0 -10 6 -13 16 -9 9 3 18 6 20 6 2 0 4 7 4 15 0 15 -6 17 -27 8z"/>
 <path d="M1645 633 c4 -16 7 -29 8 -30 1 0 36 -3 77 -5 64 -3 75 -1 78 15 3 15 -5 17 -67 17 -56 0 -71 3 -71 15 0 8 -7 15 -16 15 -13 0 -15 -6 -9 -27z"/>
 <path d="M1160 605 c0 -8 9 -15 20 -15 11 0 20 7 20 15 0 8 -9 15 -20 15 -11 0 -20 -7 -20 -15z"/>
 <path d="M1100 595 c0 -8 5 -15 10 -15 6 0 10 7 10 15 0 8 -4 15 -10 15 -5 0 -10 -7 -10 -15z"/>
 </g>
<g id="layer2" fill="#9f2a2d" stroke="none">
 <path d="M1210 2315 c0 -12 20 -15 120 -15 100 0 120 3 120 15 0 13 -20 15 -120 15 -100 0 -120 -2 -120 -15z"/>
 <path d="M2305 719 c-4 -6 -5 -13 -2 -16 7 -7 27 6 27 18 0 12 -17 12 -25 -2z"/>
 <path d="M2210 650 c0 -5 7 -10 15 -10 8 0 15 5 15 10 0 6 -7 10 -15 10 -8 0 -15 -4 -15 -10z"/>
 <path d="M2150 625 c0 -8 5 -15 10 -15 6 0 10 7 10 15 0 8 -4 15 -10 15 -5 0 -10 -7 -10 -15z"/>
 <path d="M2100 615 c0 -8 7 -15 15 -15 8 0 15 7 15 15 0 8 -7 15 -15 15 -8 0 -15 -7 -15 -15z"/>
 <path d="M1640 605 c0 -8 5 -15 10 -15 6 0 10 7 10 15 0 8 -4 15 -10 15 -5 0 -10 -7 -10 -15z"/>
 <path d="M2050 605 c0 -8 7 -15 15 -15 8 0 15 7 15 15 0 8 -7 15 -15 15 -8 0 -15 -7 -15 -15z"/>
 <path d="M800 601 c0 -7 70 -41 85 -41 3 0 5 6 5 13 0 8 -17 19 -39 25 -46 14 -51 15 -51 3z"/>
 <path d="M1190 595 c0 -8 5 -15 10 -15 6 0 10 7 10 15 0 8 -4 15 -10 15 -5 0 -10 -7 -10 -15z"/>
 <path d="M1840 595 c0 -12 14 -15 65 -15 51 0 65 3 65 15 0 12 -14 15 -65 15 -51 0 -65 -3 -65 -15z"/>
 <path d="M1110 585 c0 -8 7 -15 15 -15 8 0 15 7 15 15 0 8 -7 15 -15 15 -8 0 -15 -7 -15 -15z"/>
 <path d="M1070 575 c0 -8 5 -15 10 -15 6 0 10 7 10 15 0 8 -4 15 -10 15 -5 0 -10 -7 -10 -15z"/>
 <path d="M910 565 c0 -8 7 -15 15 -15 8 0 15 7 15 15 0 8 -7 15 -15 15 -8 0 -15 -7 -15 -15z"/>
 <path d="M1020 565 c0 -8 7 -15 15 -15 8 0 15 7 15 15 0 8 -7 15 -15 15 -8 0 -15 -7 -15 -15z"/>
 <path d="M542 539 c2 -7 10 -15 17 -17 8 -3 12 1 9 9 -2 7 -10 15 -17 17 -8 3 -12 -1 -9 -9z"/>
 </g>
<g id="layer3" fill="#99abab" stroke="none">
 <path d="M1190 2261 c0 -21 5 -31 15 -31 8 0 15 8 15 19 0 10 -7 24 -15 31 -13 11 -15 8 -15 -19z"/>
 <path d="M1190 1145 c0 -8 7 -15 15 -15 8 0 15 7 15 15 0 8 -7 15 -15 15 -8 0 -15 -7 -15 -15z"/>
 <path d="M1640 1140 c0 -11 7 -20 15 -20 8 0 15 9 15 20 0 11 -7 20 -15 20 -8 0 -15 -9 -15 -20z"/>
 <path d="M2120 644 c-25 -7 -79 -13 -120 -13 -101 -2 -150 -10 -150 -28 0 -11 19 -13 98 -9 117 5 262 35 262 53 0 16 -30 15 -90 -3z"/>
 <path d="M760 641 c0 -16 81 -62 128 -72 89 -20 113 -21 142 -9 51 21 37 37 -29 32 -61 -4 -157 17 -195 44 -23 16 -46 18 -46 5z"/>
 <path d="M1190 615 c0 -8 7 -15 15 -15 8 0 15 7 15 15 0 8 -7 15 -15 15 -8 0 -15 -7 -15 -15z"/>
 </g>
<g id="layer4" fill="#959393" stroke="none">
 <path d="M940 2305 c0 -10 11 -15 35 -15 24 0 35 5 35 15 0 10 -11 15 -35 15 -24 0 -35 -5 -35 -15z"/>
 <path d="M1030 2296 c0 -11 22 -15 93 -18 50 -2 94 -3 96 -1 2 1 -2 9 -9 18 -17 21 -180 22 -180 1z"/>
 <path d="M1630 2275 c0 -8 7 -15 15 -15 8 0 15 7 15 15 0 8 -7 15 -15 15 -8 0 -15 -7 -15 -15z"/>
 <path d="M1630 1245 c0 -42 3 -55 15 -55 12 0 15 13 15 55 0 42 -3 55 -15 55 -12 0 -15 -13 -15 -55z"/>
 <path d="M1190 1114 c0 -9 5 -14 12 -12 18 6 21 28 4 28 -9 0 -16 -7 -16 -16z"/>
 <path d="M1650 1118 c0 -18 41 -28 116 -28 41 0 54 4 54 15 0 11 -11 15 -39 15 -21 0 -59 3 -85 6 -37 6 -46 4 -46 -8z"/>
 <path d="M918 1103 c-34 -3 -48 -8 -48 -19 0 -16 36 -18 168 -7 59 4 82 10 82 19 0 14 -79 16 -202 7z"/>
 <path d="M1850 1096 c0 -13 41 -26 86 -26 35 0 29 26 -7 34 -51 10 -79 7 -79 -8z"/>
 <path d="M1630 1045 c0 -16 6 -25 15 -25 9 0 15 9 15 25 0 16 -6 25 -15 25 -9 0 -15 -9 -15 -25z"/>
 <path d="M1630 640 c0 -20 5 -30 15 -30 10 0 15 10 15 30 0 20 -5 30 -15 30 -10 0 -15 -10 -15 -30z"/>
 <path d="M2078 647 c-33 -6 -58 -15 -58 -22 0 -15 72 -28 80 -14 4 5 14 7 23 3 10 -3 17 -1 17 6 0 7 8 9 20 5 14 -4 20 -2 20 8 0 14 -23 29 -38 26 -4 -1 -33 -6 -64 -12z"/>
 <path d="M1950 605 c0 -10 10 -15 30 -15 20 0 30 5 30 15 0 10 -10 15 -30 15 -20 0 -30 -5 -30 -15z"/>
 <path d="M1090 585 c0 -8 5 -15 10 -15 6 0 10 7 10 15 0 8 -4 15 -10 15 -5 0 -10 -7 -10 -15z"/>
 <path d="M890 575 c0 -8 7 -15 15 -15 8 0 15 7 15 15 0 8 -7 15 -15 15 -8 0 -15 -7 -15 -15z"/>
 <path d="M1040 575 c0 -8 7 -15 15 -15 8 0 15 7 15 15 0 8 -7 15 -15 15 -8 0 -15 -7 -15 -15z"/>
 </g>
<g id="layer5" fill="#737373" stroke="none">
 <path d="M985 2380 c3 -5 15 -10 26 -10 11 0 17 5 14 10 -3 6 -15 10 -26 10 -11 0 -17 -4 -14 -10z"/>
 <path d="M1055 2380 c3 -5 19 -10 36 -10 16 0 29 5 29 10 0 6 -16 10 -36 10 -21 0 -33 -4 -29 -10z"/>
 <path d="M1375 2380 c3 -5 12 -10 20 -10 8 0 17 5 20 10 4 6 -5 10 -20 10 -15 0 -24 -4 -20 -10z"/>
 <path d="M1668 2378 c9 -9 15 -9 24 0 9 9 7 12 -12 12 -19 0 -21 -3 -12 -12z"/>
 <path d="M1735 2380 c-4 -6 11 -10 39 -10 25 0 48 5 51 10 4 6 -11 10 -39 10 -25 0 -48 -4 -51 -10z"/>
 <path d="M2070 2374 c0 -9 5 -14 12 -12 18 6 21 28 4 28 -9 0 -16 -7 -16 -16z"/>
 <path d="M392 2368 c7 -20 58 -23 58 -4 0 11 -10 16 -31 16 -20 0 -29 -4 -27 -12z"/>
 <path d="M600 2370 c0 -5 11 -10 25 -10 14 0 25 5 25 10 0 6 -11 10 -25 10 -14 0 -25 -4 -25 -10z"/>
 <path d="M2010 2370 c0 -5 7 -10 15 -10 8 0 15 5 15 10 0 6 -7 10 -15 10 -8 0 -15 -4 -15 -10z"/>
 <path d="M2130 2370 c0 -5 7 -10 15 -10 8 0 15 5 15 10 0 6 -7 10 -15 10 -8 0 -15 -4 -15 -10z"/>
 <path d="M2280 2365 c0 -11 12 -15 39 -15 22 0 46 -3 55 -6 11 -4 16 -1 16 10 0 16 -21 23 -77 24 -23 1 -33 -3 -33 -13z"/>
 <path d="M2468 2369 c-25 -14 -22 -31 4 -27 13 2 24 11 26 21 4 19 -5 21 -30 6z"/>
 <path d="M272 2358 c3 -7 13 -15 22 -16 12 -3 17 1 14 10 -3 7 -13 15 -22 16 -12 3 -17 -1 -14 -10z"/>
 <path d="M205 2349 c-11 -17 25 -81 42 -75 8 3 17 6 19 6 2 0 4 5 4 10 0 6 -7 10 -16 10 -11 0 -14 6 -9 21 9 29 -25 53 -40 28z"/>
 <path d="M2540 2350 c0 -5 -7 -10 -16 -10 -9 0 -14 -6 -11 -12 2 -7 -3 -18 -11 -24 -21 -16 -5 -37 22 -29 11 4 37 10 56 14 23 4 36 13 38 25 4 20 -16 38 -35 31 -7 -2 -15 0 -18 5 -8 13 -25 13 -25 0z"/>
 <path d="M152 2338 c-19 -19 -14 -38 14 -49 35 -13 39 -6 24 31 -14 33 -20 36 -38 18z"/>
 <path d="M830 2315 c0 -12 17 -15 90 -15 73 0 90 3 90 15 0 12 -17 15 -90 15 -73 0 -90 -3 -90 -15z"/>
 <path d="M1630 2321 c0 -16 19 -23 41 -16 17 6 19 9 8 16 -19 12 -49 11 -49 0z"/>
 <path d="M1070 2305 c0 -12 14 -15 65 -15 51 0 65 3 65 15 0 12 -14 15 -65 15 -51 0 -65 -3 -65 -15z"/>
 <path d="M2282 2288 c6 -17 58 -23 58 -8 0 7 -7 10 -15 7 -8 -4 -17 -2 -20 3 -9 15 -27 12 -23 -2z"/>
 <path d="M320 2269 c0 -20 15 -26 25 -9 3 5 12 7 20 3 9 -3 15 1 15 9 0 10 -11 15 -30 16 -23 0 -30 -4 -30 -19z"/>
 <path d="M410 2280 c0 -5 7 -10 15 -10 8 0 15 5 15 10 0 6 -7 10 -15 10 -8 0 -15 -4 -15 -10z"/>
 <path d="M468 2283 c-22 -5 -23 -17 -3 -33 19 -16 47 -5 43 17 -3 18 -14 23 -40 16z"/>
 <path d="M2412 2273 c5 -25 28 -28 28 -4 0 12 -6 21 -16 21 -9 0 -14 -7 -12 -17z"/>
 <path d="M1630 1125 c0 -8 7 -15 15 -15 8 0 15 -7 15 -15 0 -10 10 -15 34 -15 18 0 61 -3 95 -6 50 -6 61 -4 61 8 0 17 -57 28 -141 28 -37 0 -49 4 -49 15 0 8 -7 15 -15 15 -8 0 -15 -7 -15 -15z"/>
 <path d="M1120 1084 c0 -12 9 -14 42 -12 59 4 63 28 4 28 -35 0 -46 -4 -46 -16z"/>
 </g>
<g id="layer6" fill="#aea0a1" stroke="none">
 <path d="M865 2379 c18 -5 33 -5 39 1 7 7 -4 10 -29 9 -40 -1 -40 -1 -10 -10z"/>
 <path d="M890 2305 c0 -9 9 -15 25 -15 16 0 25 6 25 15 0 9 -9 15 -25 15 -16 0 -25 -6 -25 -15z"/>
 <path d="M960 2295 c0 -10 11 -15 35 -15 24 0 35 5 35 15 0 10 -11 15 -35 15 -24 0 -35 -5 -35 -15z"/>
 <path d="M1090 2285 c0 -11 12 -15 50 -15 38 0 50 4 50 15 0 11 -12 15 -50 15 -38 0 -50 -4 -50 -15z"/>
 <path d="M1630 2155 c0 -87 3 -105 15 -105 12 0 15 18 15 105 0 87 -3 105 -15 105 -12 0 -15 -18 -15 -105z"/>
 <path d="M1630 1405 c0 -60 3 -75 15 -75 12 0 15 15 15 75 0 60 -3 75 -15 75 -12 0 -15 -15 -15 -75z"/>
 <path d="M1660 1126 c0 -14 21 -18 163 -32 54 -5 67 -4 67 8 0 11 -26 17 -102 26 -128 15 -128 15 -128 -2z"/>
 <path d="M1010 1105 c0 -12 17 -15 90 -15 73 0 90 3 90 15 0 12 -17 15 -90 15 -73 0 -90 -3 -90 -15z"/>
 <path d="M818 1103 c-34 -3 -48 -8 -48 -19 0 -16 20 -17 123 -7 46 4 67 10 67 19 0 14 -30 16 -142 7z"/>
 <path d="M1920 1096 c0 -11 40 -26 71 -26 19 0 8 28 -13 34 -37 10 -58 7 -58 -8z"/>
 <path d="M450 1006 c0 -13 7 -29 15 -36 13 -11 15 -7 15 24 0 25 -4 36 -15 36 -9 0 -15 -9 -15 -24z"/>
 <path d="M1630 955 c0 -33 4 -45 15 -45 11 0 15 12 15 45 0 33 -4 45 -15 45 -11 0 -15 -12 -15 -45z"/>
 <path d="M1630 715 c0 -33 4 -45 15 -45 11 0 15 12 15 45 0 33 -4 45 -15 45 -11 0 -15 -12 -15 -45z"/>
 <path d="M2008 652 c-50 -10 -78 -20 -78 -29 0 -18 35 -17 158 4 68 11 102 21 102 30 0 17 -82 15 -182 -5z"/>
 <path d="M780 630 c0 -11 6 -22 13 -24 147 -39 247 -48 247 -22 0 15 -41 26 -99 26 -20 1 -61 9 -91 20 -69 24 -70 24 -70 0z"/>
 <path d="M455 610 c-17 -28 34 -100 72 -100 23 0 10 35 -14 38 -15 2 -23 13 -27 38 -7 33 -19 43 -31 24z"/>
 <path d="M1800 605 c0 -9 9 -15 25 -15 16 0 25 6 25 15 0 9 -9 15 -25 15 -16 0 -25 -6 -25 -15z"/>
 <path d="M1140 595 c0 -8 5 -15 10 -15 6 0 10 7 10 15 0 8 -4 15 -10 15 -5 0 -10 -7 -10 -15z"/>
 <path d="M2360 575 c0 -21 -33 -35 -85 -35 -66 0 -55 -24 13 -28 44 -3 56 1 77 22 28 28 33 56 10 56 -8 0 -15 -7 -15 -15z"/>
 </g>
<g id="layer7" fill="#7b8484" stroke="none">
 <path d="M762 2378 c25 -7 47 -6 65 0 24 9 18 10 -37 10 -61 0 -63 -1 -28 -10z"/>
 <path d="M895 2380 c3 -5 12 -10 20 -10 8 0 17 5 20 10 4 6 -5 10 -20 10 -15 0 -24 -4 -20 -10z"/>
 <path d="M1025 2379 c18 -5 33 -5 39 1 7 7 -4 10 -29 9 -40 -1 -40 -1 -10 -10z"/>
 <path d="M1713 2383 c9 -2 25 -2 35 0 9 3 1 5 -18 5 -19 0 -27 -2 -17 -5z"/>
 <path d="M1815 2380 c3 -5 17 -10 30 -10 13 0 27 5 30 10 4 6 -8 10 -30 10 -22 0 -34 -4 -30 -10z"/>
 <path d="M1945 2380 c7 -12 52 -12 80 0 15 6 6 9 -33 9 -33 1 -51 -3 -47 -9z"/>
 <path d="M268 2373 c-10 -2 -18 -11 -18 -20 0 -11 6 -14 23 -9 12 3 30 6 40 6 9 0 17 7 17 15 0 15 -25 18 -62 8z"/>
 <path d="M370 2365 c0 -8 7 -15 15 -15 8 0 15 7 15 15 0 8 -7 15 -15 15 -8 0 -15 -7 -15 -15z"/>
 <path d="M440 2364 c0 -11 5 -14 16 -10 9 3 27 6 40 6 13 0 24 5 24 10 0 6 -18 10 -40 10 -30 0 -40 -4 -40 -16z"/>
 <path d="M2160 2370 c0 -5 7 -10 15 -10 8 0 15 5 15 10 0 6 -7 10 -15 10 -8 0 -15 -4 -15 -10z"/>
 <path d="M2250 2370 c0 -5 16 -10 35 -10 19 0 35 5 35 10 0 6 -16 10 -35 10 -19 0 -35 -4 -35 -10z"/>
 <path d="M2430 2365 c0 -9 9 -15 23 -15 12 0 32 -3 45 -6 15 -5 22 -2 22 9 0 8 -13 17 -31 21 -47 9 -59 7 -59 -9z"/>
 <path d="M174 2359 c-8 -14 11 -33 25 -25 6 4 11 14 11 22 0 16 -26 19 -36 3z"/>
 <path d="M2550 2356 c0 -16 27 -29 41 -20 19 11 9 34 -16 34 -15 0 -25 -6 -25 -14z"/>
 <path d="M2627 2363 c-14 -13 -6 -31 16 -37 18 -5 20 -8 7 -16 -8 -5 -25 -10 -37 -10 -13 0 -23 -6 -23 -14 0 -21 20 -30 33 -17 6 6 19 11 28 11 9 0 27 9 40 20 l24 20 -28 25 c-28 25 -48 31 -60 18z"/>
 <path d="M90 2347 c-41 -21 -37 -44 14 -68 46 -21 66 -19 66 7 0 8 -10 14 -24 14 -32 0 -44 20 -17 27 25 6 28 33 4 33 -10 0 -29 -6 -43 -13z"/>
 <path d="M622 2321 c-23 -14 12 -21 114 -21 77 0 94 3 94 15 0 12 -17 15 -97 15 -54 0 -104 -4 -111 -9z"/>
 <path d="M1682 2321 c-28 -17 23 -21 289 -21 232 0 269 2 269 15 0 13 -37 15 -272 15 -150 0 -279 -4 -286 -9z"/>
 <path d="M1010 2305 c0 -10 10 -15 30 -15 20 0 30 5 30 15 0 10 -10 15 -30 15 -20 0 -30 -5 -30 -15z"/>
 <path d="M1630 2300 c0 -5 7 -10 15 -10 8 0 15 5 15 10 0 6 -7 10 -15 10 -8 0 -15 -4 -15 -10z"/>
 <path d="M195 2290 c-10 -16 4 -30 31 -30 27 0 33 24 8 34 -22 8 -32 8 -39 -4z"/>
 <path d="M2527 2294 c-14 -15 -6 -34 14 -34 14 0 19 5 17 17 -3 18 -20 27 -31 17z"/>
 <path d="M292 2275 c4 -24 118 -33 118 -9 0 10 -10 14 -32 14 -18 -1 -46 2 -61 6 -24 6 -28 4 -25 -11z"/>
 <path d="M2426 2283 c-4 -4 -22 -6 -41 -5 -27 2 -35 -1 -35 -14 0 -14 7 -16 38 -10 20 3 45 6 55 6 9 0 17 7 17 15 0 15 -21 20 -34 8z"/>
 <path d="M440 2265 c0 -8 7 -15 15 -15 8 0 15 7 15 15 0 8 -7 15 -15 15 -8 0 -15 -7 -15 -15z"/>
 <path d="M1630 1165 c0 -16 6 -25 15 -25 9 0 15 9 15 25 0 16 -6 25 -15 25 -9 0 -15 -9 -15 -25z"/>
 <path d="M1650 1105 c0 -8 9 -15 20 -15 11 0 20 7 20 15 0 8 -9 15 -20 15 -11 0 -20 -7 -20 -15z"/>
 <path d="M1068 1103 c-42 -3 -58 -8 -58 -18 0 -11 12 -15 48 -14 78 1 145 13 150 27 4 12 -10 13 -140 5z"/>
 <path d="M1790 1095 c0 -8 8 -15 19 -15 10 0 33 -3 50 -6 24 -5 31 -3 31 9 0 8 -13 17 -31 21 -50 10 -69 7 -69 -9z"/>
 </g>
<g id="layer8" fill="#daeaea" stroke="none">
 <path d="M574 2282 c-15 -9 -37 -52 -31 -59 3 -2 11 5 17 17 11 20 17 21 68 15 69 -8 121 -31 216 -99 130 -91 178 -115 260 -127 106 -15 106 -15 106 36 0 33 -4 45 -15 45 -9 0 -15 -9 -15 -25 0 -22 -4 -25 -34 -25 -49 0 -157 36 -197 65 -19 13 -49 32 -66 42 -18 9 -33 21 -33 26 0 13 -43 46 -60 47 -9 0 -25 7 -36 15 -12 8 -50 19 -85 24 -76 13 -81 13 -95 3z"/>
 <path d="M1938 2274 c-4 -3 -41 -6 -82 -6 -42 0 -96 -6 -120 -13 -24 -8 -46 -11 -49 -8 -3 2 -15 0 -26 -7 -20 -10 -21 -19 -21 -165 0 -131 2 -155 15 -155 13 0 15 23 15 144 l0 144 48 11 c59 13 135 22 190 23 23 0 44 4 47 8 3 5 14 6 25 3 11 -3 20 0 20 6 0 6 -6 11 -14 11 -8 0 -21 2 -28 5 -8 3 -17 3 -20 -1z"/>
 <path d="M2020 2265 c0 -13 21 -15 130 -15 109 0 130 2 130 15 0 13 -21 15 -130 15 -109 0 -130 -2 -130 -15z"/>
 <path d="M2303 2225 c4 -9 7 -30 7 -46 0 -19 5 -29 15 -29 25 0 20 67 -7 81 -18 10 -20 9 -15 -6z"/>
 <path d="M2310 2118 c0 -7 -3 -30 -6 -50 -5 -30 -3 -38 8 -38 10 0 18 14 22 38 9 54 8 62 -9 62 -8 0 -15 -6 -15 -12z"/>
 <path d="M520 1665 c0 -16 6 -25 15 -25 9 0 15 9 15 25 0 16 -6 25 -15 25 -9 0 -15 -9 -15 -25z"/>
 <path d="M2290 1550 c0 -11 7 -20 15 -20 8 0 15 9 15 20 0 11 -7 20 -15 20 -8 0 -15 -9 -15 -20z"/>
 <path d="M1642 1463 l3 -88 30 -1 c78 -3 214 -60 296 -125 78 -62 183 -119 219 -119 23 0 8 29 -18 34 -33 8 -163 90 -175 111 -4 8 -12 15 -17 15 -5 0 -33 15 -62 33 -29 18 -80 41 -113 51 -33 11 -70 23 -82 29 -12 5 -29 7 -37 4 -14 -5 -16 5 -16 68 0 61 -3 75 -15 75 -13 0 -15 -14 -13 -87z"/>
 <path d="M2280 1380 c0 -11 7 -20 15 -20 8 0 15 9 15 20 0 11 -7 20 -15 20 -8 0 -15 -9 -15 -20z"/>
 <path d="M1100 1320 c-30 -11 -66 -19 -81 -19 -14 -1 -29 -5 -35 -10 -5 -4 -31 -14 -59 -21 -27 -7 -54 -16 -60 -20 -18 -13 -222 -50 -274 -50 -50 0 -67 -12 -35 -24 32 -12 195 3 249 24 11 4 63 20 115 35 87 24 116 33 219 64 29 9 34 8 38 -9 9 -35 33 -23 33 15 0 32 -3 35 -27 34 -16 -1 -53 -9 -83 -19z"/>
 <path d="M2270 1280 c0 -11 7 -20 15 -20 8 0 15 9 15 20 0 11 -7 20 -15 20 -8 0 -15 -9 -15 -20z"/>
 <path d="M2256 1175 c-4 -14 -13 -25 -21 -25 -8 0 -15 -7 -15 -15 0 -8 6 -15 14 -15 17 0 56 46 56 66 0 24 -28 15 -34 -11z"/>
 <path d="M570 1070 c-8 -5 -12 -12 -8 -15 9 -9 48 4 48 16 0 12 -21 11 -40 -1z"/>
 <path d="M1933 1073 c-15 -5 -18 -33 -4 -33 21 0 41 13 41 26 0 14 -14 17 -37 7z"/>
 <path d="M2190 1065 c0 -8 5 -15 10 -15 6 0 10 7 10 15 0 8 -4 15 -10 15 -5 0 -10 -7 -10 -15z"/>
 <path d="M2280 1055 c0 -9 9 -15 25 -15 16 0 25 6 25 15 0 9 -9 15 -25 15 -16 0 -25 -6 -25 -15z"/>
 <path d="M800 1045 c0 -10 11 -15 35 -15 24 0 35 5 35 15 0 10 -11 15 -35 15 -24 0 -35 -5 -35 -15z"/>
 <path d="M1870 1045 c0 -8 5 -15 10 -15 6 0 10 7 10 15 0 8 -4 15 -10 15 -5 0 -10 -7 -10 -15z"/>
 <path d="M900 1037 c0 -15 47 -30 133 -42 40 -6 47 -5 47 10 0 12 -7 16 -27 14 -16 -1 -39 3 -53 8 -14 6 -42 13 -62 17 -30 5 -38 4 -38 -7z"/>
 <path d="M493 1009 c-27 -32 -28 -39 -9 -39 20 0 38 26 34 48 -3 17 -5 16 -25 -9z"/>
 <path d="M1746 1014 c-64 -26 -72 -31 -63 -40 8 -8 167 46 167 57 0 15 -42 9 -104 -17z"/>
 <path d="M1180 1015 c0 -8 7 -15 15 -15 8 0 15 7 15 15 0 8 -7 15 -15 15 -8 0 -15 -7 -15 -15z"/>
 <path d="M1640 840 c0 -118 3 -142 15 -147 9 -3 17 -4 18 -2 1 2 1 68 -1 147 -2 116 -6 142 -18 142 -11 0 -14 -25 -14 -140z"/>
 <path d="M620 950 c0 -13 7 -20 18 -20 11 0 24 -12 31 -26 6 -15 14 -24 17 -21 3 3 -4 23 -16 46 -21 43 -50 55 -50 21z"/>
 <path d="M2340 915 c0 -8 7 -15 15 -15 8 0 15 7 15 15 0 8 -7 15 -15 15 -8 0 -15 -7 -15 -15z"/>
 <path d="M620 907 c0 -35 75 -205 86 -194 2 2 -5 28 -16 58 -10 30 -24 73 -30 97 -6 25 -17 42 -25 42 -8 0 -15 -1 -15 -3z"/>
 <path d="M690 858 c0 -14 23 -58 32 -58 4 0 8 3 8 8 -1 9 -39 59 -40 50z"/>
 <path d="M2360 835 c0 -8 -5 -15 -11 -15 -6 0 -9 -7 -6 -14 4 -10 1 -13 -9 -9 -8 3 -50 0 -94 -7 -57 -9 -80 -17 -80 -27 0 -11 9 -13 48 -6 26 4 70 7 98 6 54 -1 62 5 79 65 5 16 2 22 -9 22 -9 0 -16 -7 -16 -15z"/>
 <path d="M2090 755 c0 -8 9 -15 20 -15 11 0 20 7 20 15 0 8 -9 15 -20 15 -11 0 -20 -7 -20 -15z"/>
 <path d="M2005 750 c-3 -5 -12 -7 -20 -3 -10 3 -15 -1 -15 -12 0 -12 5 -15 16 -11 9 3 27 6 40 6 15 0 24 6 24 15 0 16 -35 21 -45 5z"/>
 <path d="M790 729 c0 -17 82 -46 133 -48 27 -1 65 3 85 8 59 15 172 22 172 11 0 -5 7 -10 15 -10 8 0 15 9 15 19 0 34 -26 34 -258 2 -41 -5 -66 -3 -105 11 -63 21 -57 20 -57 7z"/>
 <path d="M1920 725 c0 -8 7 -15 15 -15 8 0 15 7 15 15 0 8 -7 15 -15 15 -8 0 -15 -7 -15 -15z"/>
 <path d="M1870 715 c0 -8 7 -15 15 -15 8 0 15 7 15 15 0 8 -7 15 -15 15 -8 0 -15 -7 -15 -15z"/>
 <path d="M2275 710 c-10 -11 -16 -23 -12 -26 7 -7 57 25 57 37 0 16 -26 9 -45 -11z"/>
 <path d="M1780 705 c0 -9 9 -15 25 -15 16 0 25 6 25 15 0 9 -9 15 -25 15 -16 0 -25 -6 -25 -15z"/>
 <path d="M492 569 c2 -7 10 -15 17 -17 8 -3 12 1 9 9 -2 7 -10 15 -17 17 -8 3 -12 -1 -9 -9z"/>
 <path d="M2255 549 c-4 -6 -5 -13 -2 -16 7 -7 27 6 27 18 0 12 -17 12 -25 -2z"/>
 </g>
<g id="layer9" fill="#b9bbbb" stroke="none">
 <path d="M770 2307 c0 -18 14 -22 95 -31 28 -4 105 -20 173 -37 68 -17 130 -28 138 -25 11 4 14 -10 14 -74 0 -64 3 -80 15 -80 12 0 15 15 14 83 -1 45 -4 96 -8 112 l-6 30 -130 12 c-317 28 -305 27 -305 10z"/>
 <path d="M1644 2309 c-14 -24 15 -31 100 -24 63 5 86 11 86 21 0 11 -20 14 -89 14 -54 0 -93 -4 -97 -11z"/>
 <path d="M2240 2305 c0 -8 9 -15 20 -15 24 0 27 15 4 24 -22 9 -24 8 -24 -9z"/>
 <path d="M1630 1765 c0 -247 2 -285 15 -285 13 0 15 38 15 285 0 247 -2 285 -15 285 -13 0 -15 -38 -15 -285z"/>
 <path d="M1190 1241 l0 -68 -57 -7 c-32 -4 -113 -13 -180 -21 -67 -8 -191 -19 -275 -25 -139 -10 -155 -13 -186 -36 -29 -23 -33 -30 -30 -67 4 -55 28 -63 28 -9 0 25 5 42 14 45 8 3 165 6 350 7 l336 0 0 -25 c0 -16 6 -25 15 -25 18 0 21 50 3 68 -7 7 -49 13 -107 14 l-96 2 100 5 100 6 6 30 c4 17 7 63 8 103 1 58 -2 72 -14 72 -12 0 -15 -14 -15 -69z"/>
 <path d="M1643 1214 c-3 -9 -2 -33 3 -53 l9 -36 165 -23 c246 -34 310 -38 310 -18 0 9 -3 16 -6 16 -36 0 -217 47 -275 71 -143 59 -195 70 -206 43z"/>
 <path d="M1660 1073 c0 -16 11 -18 115 -15 92 3 115 6 115 18 0 11 -22 14 -115 14 -103 0 -115 -2 -115 -17z"/>
 <path d="M2320 1075 c0 -8 7 -15 15 -15 9 0 18 -7 21 -15 6 -16 34 -21 34 -7 0 12 -44 52 -58 52 -7 0 -12 -7 -12 -15z"/>
 <path d="M610 930 c0 -5 7 -10 15 -10 8 0 15 5 15 10 0 6 -7 10 -15 10 -8 0 -15 -4 -15 -10z"/>
 <path d="M1630 835 c0 -60 3 -75 15 -75 12 0 15 15 15 75 0 60 -3 75 -15 75 -12 0 -15 -15 -15 -75z"/>
 <path d="M2360 885 c0 -8 7 -15 15 -15 8 0 15 7 15 15 0 8 -7 15 -15 15 -8 0 -15 -7 -15 -15z"/>
 <path d="M2360 810 c0 -5 7 -10 15 -10 8 0 15 5 15 10 0 6 -7 10 -15 10 -8 0 -15 -4 -15 -10z"/>
 <path d="M680 733 c0 -5 16 -30 36 -56 27 -37 39 -47 54 -42 11 4 20 2 20 -2 0 -17 203 -56 280 -54 67 2 129 20 140 41 16 30 13 100 -5 100 -10 0 -15 -10 -15 -34 l0 -33 -61 -7 c-160 -16 -263 0 -362 59 -56 34 -87 43 -87 28z"/>
 <path d="M1950 680 c-80 -16 -178 -29 -218 -30 -56 0 -74 -4 -79 -15 -3 -9 -4 -18 -2 -20 2 -2 60 -5 129 -6 101 -3 144 1 224 19 54 12 130 22 170 22 54 0 77 5 96 20 14 10 21 22 17 27 -21 21 -193 12 -337 -17z"/>
 <path d="M2349 618 c-14 -53 -14 -53 -57 -56 -34 -3 -43 -7 -40 -20 5 -28 70 -28 104 1 23 20 28 32 28 72 1 66 -18 67 -35 3z"/>
 <path d="M470 576 c0 -28 24 -51 44 -43 8 3 17 -1 20 -9 7 -18 26 -19 26 -1 0 15 -31 44 -67 65 -21 11 -23 10 -23 -12z"/>
 </g>
<g id="layer10" fill="#585959" stroke="none">
 <path d="M637 2383 c-4 -3 -47 -5 -97 -5 -49 1 -90 -3 -90 -7 0 -5 -21 -4 -47 1 -33 6 -62 5 -92 -3 -34 -10 -46 -10 -49 -1 -5 17 -38 15 -56 -3 -8 -8 -21 -12 -29 -9 -21 8 -90 -23 -85 -38 3 -7 18 -20 34 -28 16 -8 31 -18 32 -22 6 -13 39 -9 52 7 11 13 15 12 37 -5 31 -24 40 -25 60 -5 11 12 18 13 29 4 7 -6 19 -9 26 -6 7 2 24 0 37 -5 14 -5 32 -6 40 -2 32 14 61 13 61 -2 0 -20 7 -18 53 19 l41 32 316 1 c173 0 543 1 821 2 436 2 511 0 543 -13 20 -9 40 -23 43 -31 4 -11 13 -14 32 -8 14 4 35 6 46 6 10 -1 25 3 31 9 9 7 15 5 22 -6 12 -22 82 -11 82 13 0 13 2 13 18 -1 20 -18 52 -23 52 -8 0 5 14 11 30 15 43 8 48 31 14 63 -23 21 -31 24 -47 14 -15 -10 -22 -9 -36 3 -20 19 -51 21 -51 5 0 -8 -12 -9 -37 -4 -21 5 -74 10 -118 12 -146 6 -1713 12 -1718 6z"/>
 <path d="M1632 1094 c3 -16 14 -19 71 -22 55 -2 67 0 67 13 0 11 -11 15 -47 15 -27 0 -59 3 -72 7 -19 5 -22 2 -19 -13z"/>
 </g>
<g id="layer11" fill="#8d0609" stroke="none">
 <path d="M75 2361 c-52 -9 -65 -17 -65 -45 0 -27 35 -46 85 -46 24 0 35 5 35 15 0 8 -9 15 -19 15 -20 0 -37 17 -27 27 3 3 25 8 51 10 29 4 45 10 45 19 0 15 -34 17 -105 5z"/>
 <path d="M2660 2357 c0 -8 7 -17 15 -21 23 -8 18 -25 -10 -32 -35 -9 -32 -34 4 -34 54 0 81 16 81 50 0 24 -5 31 -27 36 -16 3 -36 8 -45 11 -11 3 -18 -1 -18 -10z"/>
 <path d="M1378 2323 c-58 -3 -78 -7 -78 -18 0 -7 8 -16 18 -19 39 -12 198 -36 238 -36 33 0 46 -5 54 -19 6 -12 10 -100 10 -215 0 -169 2 -196 15 -196 13 0 15 32 13 253 l-3 252 -95 1 c-52 0 -130 -1 -172 -3z"/>
 <path d="M1200 2295 c0 -8 7 -15 15 -15 8 0 15 7 15 15 0 8 -7 15 -15 15 -8 0 -15 -7 -15 -15z"/>
 <path d="M1621 1435 c-1 -98 1 -115 14 -115 13 0 15 17 14 115 -1 87 -4 115 -14 115 -10 0 -13 -28 -14 -115z"/>
 <path d="M1202 1168 l3 -113 114 1 c118 2 191 17 191 41 0 7 -1 14 -2 14 -2 1 -64 4 -138 8 -110 5 -135 9 -136 21 -1 8 -2 43 -2 78 -2 48 -5 62 -17 62 -13 0 -15 -17 -13 -112z"/>
 <path d="M1620 1090 c0 -5 7 -10 15 -10 8 0 15 5 15 10 0 6 -7 10 -15 10 -8 0 -15 -4 -15 -10z"/>
 <path d="M2423 928 c-5 -7 -22 -44 -38 -83 -16 -38 -39 -83 -53 -99 -31 -38 -112 -96 -134 -96 -9 0 -20 -4 -23 -10 -3 -5 -15 -10 -26 -10 -10 0 -19 -7 -19 -15 0 -18 5 -19 63 -1 26 8 47 10 47 6 0 -4 -43 -51 -95 -103 -52 -53 -95 -98 -95 -101 0 -32 145 58 227 142 136 138 187 228 181 324 -3 52 -17 70 -35 46z"/>
 <path d="M370 860 c0 -5 7 -10 15 -10 8 0 15 5 15 10 0 6 -7 10 -15 10 -8 0 -15 -4 -15 -10z"/>
 <path d="M1200 686 c0 -61 -3 -84 -12 -83 -7 0 -32 -3 -55 -7 -31 -6 -43 -13 -43 -26 0 -23 -32 -36 -122 -50 -61 -9 -92 -8 -164 4 -49 8 -120 17 -159 20 -38 2 -78 8 -87 11 -30 12 -20 -12 14 -38 69 -50 201 -68 320 -43 42 9 106 16 142 16 l65 0 -11 -31 c-6 -16 -8 -32 -6 -35 3 -2 49 3 104 11 54 8 102 15 107 15 4 0 7 -13 7 -29 0 -30 22 -57 39 -46 6 3 8 19 4 35 -3 16 -2 45 1 65 l7 35 74 0 c73 0 73 0 80 -29 7 -31 -12 -121 -26 -121 -5 0 -9 -4 -9 -10 0 -5 9 -10 19 -10 25 0 71 55 71 86 0 21 3 24 28 18 68 -14 132 -39 199 -75 61 -33 76 -37 98 -29 15 6 50 10 80 10 59 0 72 9 55 39 -8 16 -17 19 -44 14 -53 -8 -169 16 -243 51 -90 43 -97 53 -90 121 6 56 -4 71 -27 40 -9 -13 -26 -14 -113 -5 -64 6 -117 17 -140 29 -21 10 -57 24 -80 31 -33 10 -43 18 -43 34 0 37 -12 66 -26 66 -11 0 -14 -19 -14 -84z"/>
 <path d="M2080 605 c0 -8 7 -15 15 -15 8 0 15 7 15 15 0 8 -7 15 -15 15 -8 0 -15 -7 -15 -15z"/>
 <path d="M1050 565 c0 -8 5 -15 10 -15 6 0 10 7 10 15 0 8 -4 15 -10 15 -5 0 -10 -7 -10 -15z"/>
 <path d="M641 357 c-30 -37 -11 -111 58 -227 56 -93 74 -111 134 -125 24 -6 26 -5 21 11 -4 11 -33 59 -65 109 l-58 90 28 6 c40 8 101 48 101 65 0 17 -12 18 -27 3 -8 -8 -27 -2 -72 25 -33 21 -63 41 -66 47 -9 13 -41 11 -54 -4z"/>
 <path d="M2073 273 c-7 -2 -13 -11 -13 -19 0 -8 -6 -14 -14 -14 -12 0 -186 -220 -186 -235 0 -3 14 -5 32 -5 36 0 74 36 172 164 49 64 56 78 46 95 -11 21 -16 23 -37 14z"/>
 </g>
<g id="layer12" fill="#b30a0e" stroke="none">
 <path d="M1210 2295 c-14 -38 -12 -65 5 -65 8 0 15 7 15 15 0 17 2 18 55 5 22 -6 80 -17 129 -25 75 -12 95 -20 131 -50 24 -19 48 -35 53 -35 7 0 11 -184 14 -512 2 -282 3 -513 3 -513 0 0 -41 3 -91 8 l-92 9 -5 40 c-3 22 -14 46 -24 53 -20 15 -136 31 -152 20 -8 -4 -11 18 -11 68 0 96 -8 137 -28 137 -13 0 -14 -18 -8 -137 4 -76 10 -154 14 -173 l8 -35 124 -5 c69 -3 118 -8 110 -13 -8 -4 -69 -10 -135 -15 l-120 -7 1 -150 c1 -82 4 -173 9 -201 7 -50 9 -52 44 -58 20 -3 61 -18 91 -32 51 -24 125 -36 238 -38 30 -1 32 -3 32 -38 0 -24 7 -45 20 -58 53 -53 230 -114 320 -110 19 1 40 1 45 0 13 -4 -122 -21 -157 -21 -16 0 -28 -3 -28 -7 1 -4 36 -29 80 -57 l79 -49 -66 -96 c-36 -52 -74 -104 -85 -116 -25 -28 -23 -34 15 -34 29 0 39 10 111 109 75 102 82 109 128 120 65 17 63 47 -10 123 l-35 37 31 18 c18 10 32 23 32 30 0 6 25 36 56 65 58 55 130 146 122 154 -9 8 -118 -31 -118 -42 0 -7 -30 -36 -68 -66 -113 -91 -113 -92 -195 -85 -88 7 -169 24 -191 40 -9 7 -19 27 -22 45 l-6 32 81 0 c62 0 81 3 81 14 0 9 -23 15 -83 20 -46 4 -91 4 -99 1 -14 -6 -15 0 -11 34 5 34 3 41 -11 41 -11 0 -16 -9 -16 -26 0 -21 -3 -25 -17 -19 -36 15 -89 25 -133 25 -32 0 -68 11 -125 40 -44 22 -86 40 -92 40 -9 0 -13 20 -13 64 l0 64 44 11 c24 6 49 17 56 26 7 8 18 15 25 15 8 0 34 24 60 54 42 50 50 55 113 67 37 8 74 13 83 12 12 -2 19 8 23 30 7 42 -1 1080 -10 1129 -6 41 -5 41 -134 53 -36 4 -94 13 -130 22 -36 8 -84 17 -107 20 -39 5 -44 3 -53 -22z m850 -1973 c0 -5 -13 -18 -28 -29 l-28 -21 -50 22 -49 21 70 6 c39 3 73 6 78 7 4 1 7 -2 7 -6z"/>
 <path d="M590 1030 c0 -20 5 -30 15 -30 10 0 15 10 15 30 0 20 -5 30 -15 30 -10 0 -15 -10 -15 -30z"/>
 <path d="M411 923 l-40 -38 10 -57 c14 -87 45 -161 91 -217 51 -63 85 -81 163 -87 108 -8 224 -27 219 -36 -3 -4 -16 -8 -30 -8 -13 0 -24 -4 -24 -10 0 -5 -17 -12 -37 -16 -124 -22 -196 -146 -122 -208 17 -14 40 -28 52 -32 20 -5 123 -149 140 -196 5 -13 17 -18 47 -18 l41 0 -15 28 c-8 15 -39 63 -69 107 l-54 80 48 35 c26 19 75 56 109 82 34 27 84 56 111 65 42 15 50 22 55 50 6 31 9 33 45 33 28 0 39 4 39 15 0 12 -15 15 -72 16 l-73 1 47 21 c77 35 62 44 -79 43 -120 -1 -131 1 -184 26 -35 18 -72 47 -98 79 -44 51 -62 59 -41 17 32 -62 105 -119 185 -144 72 -23 2 -15 -101 11 -194 49 -262 105 -314 261 -30 86 -30 87 -10 101 21 15 27 33 11 33 -5 0 -27 -17 -50 -37z m546 -439 c15 -14 14 -17 -5 -37 -17 -17 -37 -22 -93 -25 -65 -4 -71 -3 -58 11 8 9 40 22 72 29 34 7 57 17 57 25 0 17 8 16 27 -3z m-214 -177 c63 -41 67 -46 48 -56 -47 -26 -133 -2 -144 40 -6 24 9 73 20 65 5 -2 39 -25 76 -49z"/>
 <path d="M2110 605 c0 -8 7 -15 15 -15 8 0 15 7 15 15 0 8 -7 15 -15 15 -8 0 -15 -7 -15 -15z"/>
 <path d="M1970 595 c0 -12 13 -15 55 -15 42 0 55 3 55 15 0 12 -13 15 -55 15 -42 0 -55 -3 -55 -15z"/>
 <path d="M1342 518 c-5 -7 -12 -22 -16 -34 -5 -16 -12 -20 -36 -16 l-31 4 7 -43 c10 -66 39 -92 74 -69 13 9 12 12 -4 25 -17 13 -18 15 -3 15 13 0 17 9 17 39 0 22 5 43 10 46 12 8 13 45 1 45 -5 0 -13 -6 -19 -12z"/>
 <path d="M1485 498 c3 -13 9 -33 12 -45 7 -28 33 -31 33 -4 0 34 -19 71 -36 71 -12 0 -15 -5 -9 -22z"/>
 <path d="M1547 464 c-4 -4 -7 -18 -7 -31 0 -32 -17 -63 -35 -63 -22 0 -18 -15 10 -47 l25 -28 25 30 c14 17 30 47 36 68 5 20 14 37 19 37 6 0 10 7 10 15 0 8 -8 15 -17 15 -10 0 -27 3 -38 6 -11 3 -24 2 -28 -2z"/>
 <path d="M1180 445 c0 -8 7 -15 15 -15 8 0 15 7 15 15 0 8 -7 15 -15 15 -8 0 -15 -7 -15 -15z"/>
 <path d="M1120 435 c0 -8 7 -15 15 -15 8 0 15 7 15 15 0 8 -7 15 -15 15 -8 0 -15 -7 -15 -15z"/>
 <path d="M1650 435 c0 -8 9 -15 20 -15 24 0 27 15 4 24 -22 9 -24 8 -24 -9z"/>
 <path d="M1710 412 c0 -9 64 -42 80 -42 21 0 8 17 -25 33 -39 19 -55 21 -55 9z"/>
 <path d="M1490 400 c0 -5 7 -10 15 -10 8 0 15 5 15 10 0 6 -7 10 -15 10 -8 0 -15 -4 -15 -10z"/>
 <path d="M1402 341 c-11 -7 -10 -10 3 -15 26 -10 35 -7 35 9 0 17 -18 19 -38 6z"/>
 </g>
<g id="layer13" fill="#dbdbdb" stroke="none">
 <path d="M660 2311 c-8 -5 -26 -7 -41 -4 -26 5 -69 -11 -69 -25 0 -5 39 -13 88 -19 87 -11 172 -46 199 -79 24 -32 149 -105 211 -124 115 -36 156 -24 151 44 -2 19 0 38 4 42 9 9 9 56 -1 70 -4 6 -25 14 -47 16 -22 3 -84 17 -138 31 -152 41 -331 65 -357 48z"/>
 <path d="M1748 2306 c-95 -12 -114 -22 -103 -56 6 -20 12 -22 54 -16 100 14 284 23 443 22 93 0 168 2 168 7 0 4 -4 7 -10 7 -5 0 -10 7 -10 15 0 8 -9 15 -19 15 -11 0 -23 5 -26 10 -8 14 -385 11 -497 -4z"/>
 <path d="M522 2228 c-19 -19 -17 -608 2 -608 9 0 15 18 20 53 9 76 7 567 -2 567 -4 0 -13 -5 -20 -12z"/>
 <path d="M2306 2028 c-3 -29 -7 -181 -10 -338 -5 -283 -19 -484 -37 -528 -8 -20 -14 -22 -46 -16 -21 4 -56 14 -78 22 -40 15 -151 87 -170 109 -33 39 -254 127 -293 116 -20 -5 -47 -78 -35 -96 4 -6 9 -27 12 -46 5 -31 11 -35 56 -48 28 -8 84 -28 125 -45 41 -17 107 -39 145 -49 39 -10 64 -18 58 -18 -7 -1 -13 -8 -13 -17 0 -14 12 -16 95 -12 54 2 95 0 95 -5 0 -5 23 -6 53 -3 44 6 56 4 69 -11 17 -20 30 -130 16 -139 -4 -3 -8 -22 -8 -42 0 -53 -10 -81 -25 -76 -15 6 -175 -16 -339 -47 -60 -12 -156 -24 -213 -28 -115 -8 -133 -17 -115 -56 11 -23 16 -25 81 -25 38 0 140 13 226 30 157 30 285 39 285 20 0 -17 15 -11 46 18 16 16 37 31 47 35 9 3 17 15 17 24 0 10 7 29 16 41 21 30 31 201 14 242 -6 16 -18 31 -26 34 -11 4 -14 41 -14 195 0 116 -4 192 -10 196 -7 4 -7 12 0 25 6 11 10 133 10 304 0 241 -2 286 -14 286 -10 0 -16 -16 -20 -52z"/>
 <path d="M1190 1905 c0 -113 2 -135 15 -135 13 0 15 22 15 135 0 113 -2 135 -15 135 -13 0 -15 -22 -15 -135z"/>
 <path d="M1190 1445 c0 -104 2 -125 15 -125 13 0 15 21 15 125 0 104 -2 125 -15 125 -13 0 -15 -21 -15 -125z"/>
 <path d="M1125 1316 c-109 -35 -243 -76 -270 -82 -16 -3 -39 -9 -50 -14 -29 -11 -158 -30 -210 -30 -33 0 -45 4 -45 15 0 20 -26 19 -34 -1 -3 -9 -6 -35 -6 -59 0 -35 4 -44 22 -48 36 -10 313 13 603 49 28 4 56 11 63 17 14 11 16 53 4 61 -5 3 -7 18 -4 34 4 29 -12 72 -26 72 -4 -1 -25 -7 -47 -14z"/>
 <path d="M1870 1081 c-14 -4 -66 -5 -116 -3 l-91 5 -12 -46 c-21 -73 -4 -82 89 -46 65 26 182 60 228 66 18 3 32 11 32 19 0 15 -83 18 -130 5z"/>
 <path d="M492 1064 c-15 -10 -22 -26 -22 -46 0 -27 3 -30 23 -24 12 3 27 6 33 6 7 0 14 9 17 20 3 12 14 20 26 20 12 0 21 4 21 10 0 6 9 6 26 0 14 -6 72 -10 129 -10 60 0 136 -7 182 -17 43 -9 120 -17 172 -18 l95 0 7 29 c5 16 6 33 3 38 -3 4 -160 8 -348 8 -290 -1 -346 -3 -364 -16z"/>
 <path d="M1190 955 c0 -33 4 -45 15 -45 11 0 15 12 15 45 0 33 -4 45 -15 45 -11 0 -15 -12 -15 -45z"/>
 <path d="M620 948 c0 -7 4 -20 10 -28 5 -9 5 -19 -1 -26 -10 -13 8 -54 23 -54 4 0 5 -7 2 -15 -3 -8 -2 -20 3 -27 4 -7 8 -22 8 -32 0 -27 141 -110 220 -131 61 -15 167 -18 265 -7 l55 7 -3 35 c-5 56 -16 60 -107 49 -163 -21 -205 -22 -250 -5 -62 24 -113 80 -153 169 -25 56 -40 77 -53 77 -11 0 -19 -6 -19 -12z"/>
 <path d="M1190 795 c0 -51 3 -65 15 -65 12 0 15 14 15 65 0 51 -3 65 -15 65 -12 0 -15 -14 -15 -65z"/>
 <path d="M2360 666 c0 -8 -7 -16 -15 -20 -8 -3 -15 -14 -15 -25 0 -11 -11 -28 -25 -39 -31 -25 -32 -42 -2 -42 31 0 57 29 62 70 2 18 9 38 14 43 15 15 14 27 -4 27 -8 0 -15 -6 -15 -14z"/>
 <path d="M472 594 c1 -9 9 -19 16 -22 9 -3 13 2 10 14 -1 9 -9 19 -16 22 -9 3 -13 -2 -10 -14z"/>
 </g>
<g id="layer14" fill="#db0d11" stroke="none">
 <path d="M1219 2263 c-11 -13 -14 -90 -13 -417 2 -482 10 -656 30 -656 8 0 14 9 14 19 0 14 9 20 36 23 19 2 37 0 40 -4 3 -4 16 -8 29 -8 32 0 58 -39 50 -73 -8 -29 1 -32 118 -43 42 -4 77 -10 77 -14 0 -4 -29 -13 -65 -20 -72 -14 -78 -18 -124 -77 -18 -24 -37 -43 -43 -43 -5 0 -21 -9 -35 -19 -13 -11 -44 -23 -69 -27 l-44 -6 0 -84 c0 -80 1 -84 23 -84 12 0 54 -16 92 -36 54 -28 88 -38 149 -45 44 -4 92 -13 108 -20 34 -14 37 -12 49 38 10 46 12 397 2 407 -5 4 -8 40 -8 79 -1 817 -6 1057 -20 1057 -9 0 -15 -9 -15 -25 l0 -25 -51 36 c-41 28 -68 38 -137 50 -48 8 -105 18 -127 24 -52 12 -50 13 -66 -7z"/>
 <path d="M519 1008 c-34 -29 -73 -62 -86 -73 l-25 -21 33 -92 c28 -81 40 -101 93 -156 46 -48 75 -68 121 -85 146 -55 345 -81 345 -46 0 8 -3 15 -7 15 -32 1 -148 32 -181 49 -38 19 -112 94 -112 113 0 5 -9 28 -20 51 -11 23 -28 80 -36 127 -9 47 -20 93 -25 102 -5 10 -9 29 -9 43 0 38 -22 31 -91 -27z"/>
 <path d="M2136 613 c-4 -5 -112 -10 -239 -13 l-232 -5 1 -39 c3 -71 65 -101 234 -113 75 -5 75 -5 126 33 124 95 153 120 154 132 0 13 -32 17 -44 5z"/>
 <path d="M1351 501 c-26 -36 -28 -116 -5 -149 21 -30 114 -32 143 -3 28 28 36 97 17 144 -16 37 -17 37 -75 37 -54 0 -61 -3 -80 -29z"/>
 <path d="M880 485 c-30 -7 -72 -16 -92 -19 -34 -6 -38 -10 -38 -37 l0 -31 89 4 c84 3 90 5 129 38 22 19 41 41 41 48 1 16 -56 15 -129 -3z"/>
 <path d="M1145 444 c-90 -18 -174 -60 -254 -128 -35 -31 -79 -62 -98 -71 -19 -9 -33 -20 -31 -24 2 -4 32 -54 68 -110 l65 -102 51 5 c29 2 67 12 85 21 48 25 128 109 188 198 29 44 62 88 73 99 17 17 19 24 9 39 -6 10 -11 35 -11 54 0 34 -1 35 -37 34 -21 0 -69 -7 -108 -15z"/>
 <path d="M1585 410 c-4 -22 -15 -50 -26 -64 -10 -13 -19 -29 -19 -34 0 -13 78 -126 145 -211 71 -91 122 -112 162 -69 36 41 143 201 143 215 0 8 5 11 11 8 6 -4 19 2 30 14 11 12 26 21 34 21 18 0 20 34 3 47 -7 5 -53 7 -103 3 l-90 -5 -65 38 c-75 43 -160 77 -194 77 -20 0 -25 -6 -31 -40z"/>
 </g>
<g id="layer15" fill="#f6f7f7" stroke="none">
 <path d="M604 2309 c-16 -5 -40 -19 -53 -33 -22 -24 -23 -28 -26 -332 -3 -170 -7 -407 -10 -526 -5 -192 -4 -218 10 -218 8 0 15 -4 15 -10 0 -5 23 -10 51 -10 53 0 239 34 274 50 11 5 38 14 60 20 22 6 49 15 60 19 23 9 148 41 187 48 16 3 30 14 34 27 10 28 9 632 -1 674 -5 27 -11 33 -26 29 -32 -8 -133 9 -175 31 -67 33 -87 45 -174 108 -87 62 -133 84 -179 85 -26 0 -26 0 -3 9 26 11 29 25 6 34 -9 3 -16 6 -17 5 -1 0 -16 -5 -33 -10z"/>
 <path d="M690 2285 c0 -8 5 -15 10 -15 6 0 10 7 10 15 0 8 -4 15 -10 15 -5 0 -10 -7 -10 -15z"/>
 <path d="M730 2286 c0 -10 9 -16 21 -16 24 0 21 23 -4 28 -10 2 -17 -3 -17 -12z"/>
 <path d="M1808 2295 c-3 -3 -35 -7 -73 -10 -49 -3 -71 -9 -81 -22 -18 -24 -17 -33 1 -33 8 0 15 7 15 15 0 8 1 15 3 16 1 0 65 2 142 4 134 3 136 3 45 -6 -115 -10 -185 -26 -201 -45 -18 -22 -21 -864 -2 -864 7 0 13 7 13 15 0 21 27 30 53 18 12 -6 49 -18 82 -28 57 -18 85 -34 263 -154 76 -50 149 -78 178 -67 8 3 21 20 27 36 7 18 19 30 29 30 10 0 18 7 18 15 0 8 -7 15 -15 15 -8 0 -15 9 -15 20 0 11 7 20 15 20 8 0 15 5 15 10 0 6 -6 10 -13 10 -8 0 -11 14 -9 45 3 30 9 45 18 45 17 0 18 14 2 41 -11 17 -10 22 5 30 20 12 23 49 4 49 -16 0 -14 269 5 683 3 51 0 62 -24 88 l-27 29 -125 0 c-105 0 -126 -2 -126 -15 0 -8 -4 -15 -10 -15 -5 0 -10 7 -10 15 0 12 -18 15 -98 15 -54 0 -101 -2 -104 -5z"/>
 <path d="M834 2268 c-8 -12 21 -38 43 -38 7 0 34 -15 60 -34 59 -41 159 -79 190 -71 13 3 23 1 23 -5 0 -5 14 -10 31 -10 26 0 30 3 27 22 -3 20 -13 24 -78 35 -41 7 -87 19 -103 28 -15 9 -36 14 -46 10 -13 -4 -20 0 -24 16 -4 14 -11 20 -21 16 -8 -3 -17 1 -20 9 -3 8 -14 14 -25 14 -11 0 -23 5 -26 10 -8 13 -22 13 -31 -2z"/>
 <path d="M1678 1313 c-33 -8 -18 -28 30 -40 56 -13 116 -40 221 -100 73 -42 111 -53 111 -34 0 15 -42 41 -67 41 -14 0 -23 6 -23 15 0 9 -9 15 -25 15 -14 0 -25 6 -25 13 0 14 -71 57 -95 57 -9 0 -23 7 -32 15 -9 9 -23 13 -34 10 -11 -4 -19 -2 -19 4 0 11 -11 12 -42 4z"/>
 <path d="M1180 1254 c0 -11 -5 -14 -16 -10 -8 3 -22 -1 -31 -10 -10 -10 -25 -13 -44 -9 -18 4 -29 2 -29 -4 0 -6 -9 -11 -20 -11 -11 0 -20 -5 -20 -10 0 -16 31 -25 39 -11 4 6 14 9 22 6 8 -3 40 1 70 8 47 12 54 18 57 41 2 18 -1 26 -12 26 -9 0 -16 -7 -16 -16z"/>
 <path d="M935 1190 c-3 -6 -17 -7 -31 -4 -17 4 -26 1 -30 -10 -10 -27 1 -29 71 -16 43 8 65 17 65 26 0 16 -65 20 -75 4z"/>
 <path d="M738 1163 c-30 -8 -22 -35 10 -31 15 2 27 9 27 17 0 16 -12 21 -37 14z"/>
 <path d="M810 1154 c0 -10 7 -14 22 -12 32 5 35 28 4 28 -17 0 -26 -5 -26 -16z"/>
 <path d="M520 1150 c0 -5 7 -10 15 -10 8 0 15 5 15 10 0 6 -7 10 -15 10 -8 0 -15 -4 -15 -10z"/>
 <path d="M560 1134 c0 -16 82 -13 88 4 3 9 -9 12 -42 10 -29 -1 -46 -6 -46 -14z"/>
 <path d="M2280 1140 c0 -5 7 -10 15 -10 8 0 15 5 15 10 0 6 -7 10 -15 10 -8 0 -15 -4 -15 -10z"/>
 <path d="M2053 1127 c2 -6 10 -13 18 -13 8 -1 16 -3 19 -4 6 -3 48 -10 73 -13 9 -1 17 -5 17 -10 0 -4 -44 -7 -98 -6 -53 1 -106 -2 -117 -8 -11 -6 -38 -13 -60 -17 -22 -3 -87 -23 -145 -44 l-105 -39 -3 -143 -3 -143 101 7 c56 3 143 15 193 25 144 30 377 64 384 57 3 -3 -2 -15 -12 -26 -30 -34 -7 -36 27 -3 23 23 29 36 23 50 -10 22 -6 84 5 98 5 6 5 42 0 80 -5 39 -9 73 -10 78 0 4 -9 7 -20 7 -11 0 -20 5 -20 11 0 7 -16 9 -49 4 -43 -6 -50 -4 -55 13 -6 17 -39 32 -81 36 -5 1 -14 4 -20 7 -21 12 -67 9 -62 -4z"/>
 <path d="M2277 1114 c-13 -13 -7 -24 14 -24 11 0 19 5 17 12 -5 14 -22 21 -31 12z"/>
 <path d="M2230 1095 c0 -8 5 -15 10 -15 6 0 10 7 10 15 0 8 -4 15 -10 15 -5 0 -10 -7 -10 -15z"/>
 <path d="M1796 1068 c-11 -6 -27 -12 -35 -12 -38 -4 -101 -30 -101 -43 0 -17 12 -17 58 3 20 9 46 17 57 19 47 6 75 18 75 31 0 17 -27 18 -54 2z"/>
 <path d="M605 1049 c-10 -31 3 -89 21 -89 8 0 31 -35 54 -84 26 -55 54 -96 82 -122 26 -23 42 -45 40 -56 -2 -11 3 -18 13 -18 11 0 15 5 12 15 -5 11 -1 12 19 5 32 -12 135 -13 166 -1 13 5 60 12 103 16 44 3 84 10 88 14 5 5 9 65 9 134 1 162 1 162 -107 153 -65 -5 -95 -2 -151 14 -39 11 -114 22 -174 25 -58 3 -119 8 -137 10 -26 5 -33 2 -38 -16z"/>
 <path d="M940 1060 c-15 -5 -18 -8 -8 -9 9 -1 23 -4 32 -7 11 -4 16 -1 16 10 0 17 -3 18 -40 6z"/>
 <path d="M532 1038 c-19 -20 -24 -21 -32 -8 -8 12 -10 11 -10 -7 0 -14 6 -23 16 -23 19 0 74 38 74 51 0 16 -25 10 -48 -13z"/>
 <path d="M1030 1045 c0 -16 36 -20 58 -6 11 7 10 10 -3 15 -29 11 -55 7 -55 -9z"/>
 <path d="M1150 1045 c0 -10 10 -15 30 -15 35 0 40 15 8 24 -34 9 -38 8 -38 -9z"/>
 <path d="M624 914 c3 -9 6 -18 6 -20 0 -2 7 -4 16 -4 11 0 14 5 10 16 -3 9 -6 18 -6 20 0 2 -7 4 -16 4 -11 0 -14 -5 -10 -16z"/>
 <path d="M655 838 c8 -34 26 -58 44 -58 17 0 13 14 -9 33 -11 9 -20 26 -20 37 0 11 -5 20 -11 20 -7 0 -8 -11 -4 -32z"/>
 <path d="M740 735 c0 -8 5 -15 10 -15 6 0 10 7 10 15 0 8 -4 15 -10 15 -5 0 -10 -7 -10 -15z"/>
 <path d="M2153 743 c-13 -2 -23 -11 -23 -20 0 -11 6 -14 23 -9 12 3 25 6 30 6 4 0 7 7 7 15 0 8 -3 14 -7 14 -5 -1 -18 -4 -30 -6z"/>
 <path d="M2050 715 c0 -16 9 -19 34 -9 25 9 19 24 -9 24 -16 0 -25 -6 -25 -15z"/>
 <path d="M1973 713 c-13 -2 -23 -9 -23 -14 0 -7 24 -7 73 0 4 0 7 6 7 11 0 10 -16 11 -57 3z"/>
 <path d="M1900 684 c0 -17 22 -14 28 4 2 7 -3 12 -12 12 -9 0 -16 -7 -16 -16z"/>
 <path d="M1123 683 c-38 -7 -29 -35 10 -31 19 2 32 8 32 17 0 16 -11 20 -42 14z"/>
 <path d="M1180 669 c0 -24 23 -21 28 4 2 10 -3 17 -12 17 -10 0 -16 -9 -16 -21z"/>
 <path d="M1790 675 c0 -8 7 -15 15 -15 8 0 15 7 15 15 0 8 -7 15 -15 15 -8 0 -15 -7 -15 -15z"/>
 <path d="M1840 675 c0 -17 2 -18 24 -9 23 9 20 24 -4 24 -11 0 -20 -7 -20 -15z"/>
 <path d="M860 671 c0 -15 16 -22 35 -15 13 5 14 8 3 15 -18 12 -38 11 -38 0z"/>
 <path d="M988 673 c-25 -3 -38 -9 -38 -19 0 -15 37 -19 78 -8 23 7 32 35 10 32 -7 -1 -30 -3 -50 -5z"/>
 <path d="M1680 665 c0 -11 12 -15 45 -15 33 0 45 4 45 15 0 11 -12 15 -45 15 -33 0 -45 -4 -45 -15z"/>
 <path d="M2315 613 c-33 -34 -45 -63 -27 -63 14 0 59 53 67 78 9 30 2 28 -40 -15z"/>
 </g>

</svg>